<svg width="90" height="52" viewBox="0 0 90 52" fill="none" xmlns="http://www.w3.org/2000/svg">
<rect width="90" height="52" rx="8" fill="#1E6F9F"/>
<path d="M25.8686 24.3828H23.6911C23.6513 24.1011 23.5701 23.8509 23.4474 23.6321C23.3248 23.41 23.1674 23.2211 22.9751 23.0653C22.7829 22.9096 22.5608 22.7902 22.3089 22.7074C22.0604 22.6245 21.7902 22.5831 21.4986 22.5831C20.9716 22.5831 20.5125 22.714 20.1214 22.9759C19.7304 23.2344 19.4271 23.6122 19.2116 24.1094C18.9962 24.6032 18.8885 25.2031 18.8885 25.9091C18.8885 26.6349 18.9962 27.2448 19.2116 27.7386C19.4304 28.2325 19.7353 28.6054 20.1264 28.8572C20.5175 29.1091 20.9699 29.2351 21.4837 29.2351C21.772 29.2351 22.0388 29.197 22.2841 29.1207C22.5327 29.0445 22.7531 28.9335 22.9453 28.7876C23.1375 28.6385 23.2966 28.4579 23.4226 28.2457C23.5518 28.0336 23.6413 27.7917 23.6911 27.5199L25.8686 27.5298C25.8123 27.9972 25.6714 28.4479 25.446 28.8821C25.224 29.313 24.924 29.6991 24.5462 30.0405C24.1716 30.3786 23.7242 30.647 23.2038 30.8459C22.6868 31.0414 22.1018 31.1392 21.4489 31.1392C20.5407 31.1392 19.7287 30.9337 19.0128 30.5227C18.3002 30.1117 17.7367 29.5168 17.3224 28.7379C16.9115 27.959 16.706 27.0161 16.706 25.9091C16.706 24.7988 16.9148 23.8542 17.3324 23.0753C17.75 22.2964 18.3168 21.7031 19.0327 21.2955C19.7486 20.8845 20.554 20.679 21.4489 20.679C22.0388 20.679 22.5857 20.7618 23.0895 20.9276C23.5966 21.0933 24.0457 21.3352 24.4368 21.6534C24.8279 21.9683 25.1461 22.3544 25.3913 22.8118C25.6399 23.2692 25.799 23.7929 25.8686 24.3828ZM27.3725 31V23.3636H29.4258V24.696H29.5053C29.6445 24.2221 29.8782 23.8641 30.2063 23.6222C30.5344 23.3769 30.9123 23.2543 31.3398 23.2543C31.4459 23.2543 31.5603 23.2609 31.6829 23.2741C31.8055 23.2874 31.9132 23.3056 32.006 23.3288V25.2081C31.9066 25.1783 31.7691 25.1518 31.5934 25.1286C31.4177 25.1054 31.257 25.0938 31.1112 25.0938C30.7996 25.0938 30.5212 25.1617 30.2759 25.2976C30.034 25.4302 29.8417 25.6158 29.6992 25.8544C29.56 26.093 29.4904 26.3681 29.4904 26.6797V31H27.3725ZM33.101 31V23.3636H35.2189V31H33.101ZM34.165 22.3793C33.8501 22.3793 33.58 22.2749 33.3546 22.0661C33.1325 21.8539 33.0215 21.6004 33.0215 21.3054C33.0215 21.0137 33.1325 20.7635 33.3546 20.5547C33.58 20.3426 33.8501 20.2365 34.165 20.2365C34.4798 20.2365 34.7483 20.3426 34.9703 20.5547C35.1957 20.7635 35.3084 21.0137 35.3084 21.3054C35.3084 21.6004 35.1957 21.8539 34.9703 22.0661C34.7483 22.2749 34.4798 22.3793 34.165 22.3793ZM39.093 31.1442C38.6058 31.1442 38.1716 31.0597 37.7905 30.8906C37.4093 30.7183 37.1077 30.4647 36.8857 30.13C36.6669 29.7919 36.5575 29.371 36.5575 28.8672C36.5575 28.4429 36.6354 28.0866 36.7912 27.7983C36.947 27.5099 37.1591 27.2779 37.4276 27.1023C37.696 26.9266 38.0009 26.794 38.3423 26.7045C38.687 26.6151 39.0483 26.5521 39.4261 26.5156C39.8703 26.4692 40.2282 26.4261 40.5 26.3864C40.7718 26.3433 40.969 26.2803 41.0916 26.1974C41.2143 26.1146 41.2756 25.992 41.2756 25.8295V25.7997C41.2756 25.4848 41.1761 25.2412 40.9773 25.0689C40.7817 24.8965 40.5033 24.8104 40.142 24.8104C39.7609 24.8104 39.4576 24.8949 39.2322 25.0639C39.0069 25.2296 38.8577 25.4384 38.7848 25.6903L36.826 25.5312C36.9254 25.0672 37.121 24.6662 37.4126 24.3281C37.7043 23.9867 38.0805 23.7249 38.5412 23.5426C39.0052 23.357 39.5421 23.2642 40.152 23.2642C40.5762 23.2642 40.9822 23.3139 41.37 23.4134C41.7611 23.5128 42.1075 23.6669 42.4091 23.8757C42.714 24.0845 42.9543 24.353 43.13 24.6811C43.3056 25.0059 43.3935 25.3954 43.3935 25.8494V31H41.3849V29.9411H41.3253C41.2027 30.1797 41.0386 30.3902 40.8331 30.5724C40.6276 30.7514 40.3807 30.8923 40.0923 30.995C39.804 31.0945 39.4709 31.1442 39.093 31.1442ZM39.6996 29.6825C40.0111 29.6825 40.2862 29.6212 40.5249 29.4986C40.7635 29.3726 40.9508 29.2036 41.0866 28.9915C41.2225 28.7794 41.2905 28.5391 41.2905 28.2706V27.4602C41.2242 27.5033 41.133 27.5431 41.017 27.5795C40.9044 27.6127 40.7768 27.6442 40.6342 27.674C40.4917 27.7005 40.3492 27.7254 40.2067 27.7486C40.0642 27.7685 39.9349 27.7867 39.8189 27.8033C39.5703 27.8397 39.3532 27.8977 39.1676 27.9773C38.982 28.0568 38.8378 28.1645 38.7351 28.3004C38.6323 28.433 38.581 28.5987 38.581 28.7976C38.581 29.0859 38.6854 29.3063 38.8942 29.4588C39.1063 29.608 39.3748 29.6825 39.6996 29.6825ZM45.0366 31V23.3636H47.0898V24.696H47.1694C47.3086 24.2221 47.5423 23.8641 47.8704 23.6222C48.1985 23.3769 48.5763 23.2543 49.0039 23.2543C49.11 23.2543 49.2243 23.2609 49.3469 23.2741C49.4696 23.2874 49.5773 23.3056 49.6701 23.3288V25.2081C49.5707 25.1783 49.4331 25.1518 49.2575 25.1286C49.0818 25.1054 48.921 25.0938 48.7752 25.0938C48.4637 25.0938 48.1853 25.1617 47.94 25.2976C47.698 25.4302 47.5058 25.6158 47.3633 25.8544C47.2241 26.093 47.1545 26.3681 47.1545 26.6797V31H45.0366Z" fill="#F2F2F2"/>
<g clip-path="url(#clip0_43_108)">
<path d="M65.9837 19.4516C67.2757 19.4516 68.5386 19.8347 69.6128 20.5524C70.687 21.2702 71.5242 22.2904 72.0186 23.484C72.513 24.6775 72.6424 25.9909 72.3903 27.258C72.1383 28.5251 71.5161 29.689 70.6026 30.6026C69.6891 31.5161 68.5252 32.1382 67.2581 32.3903C65.991 32.6423 64.6776 32.5129 63.484 32.0185C62.2904 31.5241 61.2702 30.6869 60.5525 29.6127C59.8347 28.5385 59.4516 27.2756 59.4516 25.9837C59.4583 24.2533 60.1487 22.5957 61.3722 21.3722C62.5958 20.1486 64.2534 19.4583 65.9837 19.4516ZM65.9837 18C64.4061 18.0065 62.8658 18.4802 61.5572 19.3613C60.2486 20.2425 59.2304 21.4916 58.6311 22.951C58.0318 24.4104 57.8784 26.0146 58.1901 27.5611C58.5019 29.1077 59.2648 30.5272 60.3826 31.6404C61.5004 32.7537 62.923 33.5108 64.4708 33.8162C66.0186 34.1217 67.6222 33.9617 69.0791 33.3564C70.536 32.7512 71.781 31.7279 72.6568 30.4158C73.5326 29.1036 74 27.5613 74.0001 25.9837C74.0001 24.9325 73.7925 23.8917 73.3892 22.9209C72.986 21.9501 72.395 21.0686 71.6502 20.3268C70.9053 19.585 70.0214 18.9976 69.049 18.5983C68.0766 18.199 67.0349 17.9957 65.9837 18Z" fill="#F2F2F2"/>
<path d="M69.707 25.3813H66.4954V22.1697H65.414V25.3813H62.1987V26.4627H65.414V29.6743H66.4954V26.4627H69.707V25.3813Z" fill="#F2F2F2"/>
</g>
<defs>
<clipPath id="clip0_43_108">
<rect width="16" height="16" fill="white" transform="translate(58 18)"/>
</clipPath>
</defs>
</svg>
